# xmcd
#
# Track frame offsets:
#	150
#	18132
#	34204
#	52587
#	70409
#	79479
#	98114
#	123364
#	140491
#	160044
#	182794
#	198559
#	222939
#	241671
#	261609
#	275176
#	295344
#	314487
#
# Disc length: 4704 seconds
#
# Revision: 0
# Processed by: cddbd v1.4PL0 Copyright (c) Steve Scherf et al.
# Submitted via: audiograbber 1.81.03
#
DISCID=11125e12
DTITLE=Alicia Keys - Gangsta Lovin'
DYEAR=2002
DGENRE=R&B
TTITLE0=Gangsta Lovin (with Eve)
TTITLE1=Girlfriend
TTITLE2=Rear View Mirror
TTITLE3=How Come You Don't Call Me
TTITLE4=Never Felt This Way (interlude)
TTITLE5=Butterflyz
TTITLE6=Rock With It
TTITLE7=Rock With U
TTITLE8=Goodbye
TTITLE9=A Woman's Worth
TTITLE10=Fallin'
TTITLE11=The Life
TTITLE12=Mr. Man (duet with Jimmy Cozier)
TTITLE13=Why Do Feel So Sad
TTITLE14=Caged Bird
TTITLE15=Troubles
TTITLE16=Fallin' (rmx ft busta rhymes and rampage)
TTITLE17=A Woman's Worth (remix)
EXTD=
EXTT0=
EXTT1=
EXTT2=
EXTT3=
EXTT4=
EXTT5=
EXTT6=
EXTT7=
EXTT8=
EXTT9=
EXTT10=
EXTT11=
EXTT12=
EXTT13=
EXTT14=
EXTT15=
EXTT16=
EXTT17=
PLAYORDER=
